<mxfile host="65bd71144e" modified="2020-12-12T08:05:13.120Z" agent="5.0 (Macintosh; Intel Mac OS X 10_15_6) AppleWebKit/537.36 (KHTML, like Gecko) Code/1.50.0 Chrome/83.0.4103.122 Electron/9.2.1 Safari/537.36" version="13.10.0" etag="5fZcKzSTLnrPF4_CNs7t" type="embed">
    <diagram id="YOZDa7J0dJK6hZB9ocOp" name="ページ1">
        <mxGraphModel dx="728" dy="680" grid="1" gridSize="10" guides="1" tooltips="1" connect="1" arrows="1" fold="1" page="1" pageScale="1" pageWidth="827" pageHeight="1169" math="0" shadow="0">
            <root>
                <mxCell id="0"/>
                <mxCell id="1" parent="0"/>
                <mxCell id="2" value="login.riot&lt;br&gt;/login" style="shape=ext;double=1;rounded=0;whiteSpace=wrap;html=1;" vertex="1" parent="1">
                    <mxGeometry x="240" y="40" width="120" height="80" as="geometry"/>
                </mxCell>
                <mxCell id="7" value="" style="edgeStyle=orthogonalEdgeStyle;rounded=0;orthogonalLoop=1;jettySize=auto;html=1;fillColor=#e51400;strokeColor=#B20000;" edge="1" parent="1" source="3" target="2">
                    <mxGeometry relative="1" as="geometry">
                        <mxPoint x="370" y="110" as="targetPoint"/>
                        <Array as="points">
                            <mxPoint x="500" y="110"/>
                        </Array>
                    </mxGeometry>
                </mxCell>
                <mxCell id="10" style="edgeStyle=orthogonalEdgeStyle;rounded=0;orthogonalLoop=1;jettySize=auto;html=1;entryX=1;entryY=0.5;entryDx=0;entryDy=0;fillColor=#60a917;strokeColor=#2D7600;" edge="1" parent="1" source="3" target="9">
                    <mxGeometry relative="1" as="geometry">
                        <mxPoint x="600" y="240" as="targetPoint"/>
                        <Array as="points">
                            <mxPoint x="600" y="40"/>
                            <mxPoint x="600" y="200"/>
                        </Array>
                    </mxGeometry>
                </mxCell>
                <mxCell id="3" value="dialog&lt;br&gt;password入力" style="rounded=1;whiteSpace=wrap;html=1;strokeWidth=2;fillWeight=4;hachureGap=8;hachureAngle=45;fillColor=#1ba1e2;sketch=1;" vertex="1" parent="1">
                    <mxGeometry x="400" y="10" width="120" height="60" as="geometry"/>
                </mxCell>
                <mxCell id="5" value="" style="edgeStyle=orthogonalEdgeStyle;rounded=0;orthogonalLoop=1;jettySize=auto;html=1;exitX=1.033;exitY=0.638;exitDx=0;exitDy=0;exitPerimeter=0;entryX=0.5;entryY=1;entryDx=0;entryDy=0;" edge="1" parent="1" source="2" target="3">
                    <mxGeometry relative="1" as="geometry">
                        <mxPoint x="370" y="90" as="sourcePoint"/>
                        <mxPoint x="460" y="130" as="targetPoint"/>
                    </mxGeometry>
                </mxCell>
                <mxCell id="8" value="ログイン失敗" style="text;html=1;strokeColor=none;fillColor=none;align=center;verticalAlign=middle;whiteSpace=wrap;rounded=0;" vertex="1" parent="1">
                    <mxGeometry x="500" y="80" width="80" height="20" as="geometry"/>
                </mxCell>
                <mxCell id="18" value="" style="edgeStyle=orthogonalEdgeStyle;rounded=0;orthogonalLoop=1;jettySize=auto;html=1;fontSize=12;" edge="1" parent="1" target="16">
                    <mxGeometry relative="1" as="geometry">
                        <mxPoint x="300" y="240" as="sourcePoint"/>
                        <Array as="points">
                            <mxPoint x="280" y="240"/>
                            <mxPoint x="280" y="260"/>
                            <mxPoint x="80" y="260"/>
                        </Array>
                    </mxGeometry>
                </mxCell>
                <mxCell id="19" value="" style="edgeStyle=orthogonalEdgeStyle;rounded=0;orthogonalLoop=1;jettySize=auto;html=1;fontSize=12;entryX=0.5;entryY=0;entryDx=0;entryDy=0;" edge="1" parent="1" source="9" target="17">
                    <mxGeometry relative="1" as="geometry">
                        <mxPoint x="360" y="260" as="targetPoint"/>
                        <Array as="points"/>
                    </mxGeometry>
                </mxCell>
                <mxCell id="21" value="" style="edgeStyle=orthogonalEdgeStyle;rounded=0;orthogonalLoop=1;jettySize=auto;html=1;fontSize=12;" edge="1" parent="1" source="9" target="2">
                    <mxGeometry relative="1" as="geometry"/>
                </mxCell>
                <mxCell id="24" value="" style="edgeStyle=orthogonalEdgeStyle;rounded=0;orthogonalLoop=1;jettySize=auto;html=1;fontSize=14;" edge="1" parent="1" source="9" target="20">
                    <mxGeometry relative="1" as="geometry">
                        <Array as="points">
                            <mxPoint x="320" y="260"/>
                            <mxPoint x="480" y="260"/>
                        </Array>
                    </mxGeometry>
                </mxCell>
                <mxCell id="9" value="app.riot&lt;br&gt;/" style="shape=ext;double=1;rounded=0;whiteSpace=wrap;html=1;" vertex="1" parent="1">
                    <mxGeometry x="240" y="160" width="120" height="80" as="geometry"/>
                </mxCell>
                <mxCell id="11" value="ログイン成功" style="text;strokeColor=none;fillColor=none;html=1;fontSize=15;fontStyle=0;verticalAlign=middle;align=center;" vertex="1" parent="1">
                    <mxGeometry x="460" y="210" width="80" height="10" as="geometry"/>
                </mxCell>
                <mxCell id="12" value="&lt;ul&gt;&lt;li&gt;ユーザーアカウント&lt;/li&gt;&lt;li&gt;ステータス確認&lt;/li&gt;&lt;li&gt;ログアウト&lt;/li&gt;&lt;/ul&gt;&lt;div&gt;&lt;br&gt;&lt;/div&gt;" style="text;strokeColor=none;fillColor=none;html=1;whiteSpace=wrap;verticalAlign=middle;overflow=hidden;fontSize=15;horizontal=1;labelPosition=center;verticalLabelPosition=middle;align=left;" vertex="1" parent="1">
                    <mxGeometry x="20" y="135" width="200" height="160" as="geometry"/>
                </mxCell>
                <mxCell id="15" value="サイドバー" style="text;strokeColor=none;fillColor=none;html=1;fontSize=18;fontStyle=0;verticalAlign=middle;align=center;" vertex="1" parent="1">
                    <mxGeometry x="40" y="120" width="100" height="40" as="geometry"/>
                </mxCell>
                <mxCell id="16" value="profile.riot&lt;br&gt;/profile" style="shape=ext;double=1;rounded=0;whiteSpace=wrap;html=1;fontSize=12;align=center;" vertex="1" parent="1">
                    <mxGeometry y="280" width="120" height="80" as="geometry"/>
                </mxCell>
                <mxCell id="17" value="sutatus.riot&lt;br&gt;/status" style="shape=ext;double=1;rounded=0;whiteSpace=wrap;html=1;fontSize=12;align=center;" vertex="1" parent="1">
                    <mxGeometry x="240" y="280" width="120" height="80" as="geometry"/>
                </mxCell>
                <mxCell id="20" value="battle.riot&lt;br&gt;/battle" style="shape=ext;double=1;rounded=0;whiteSpace=wrap;html=1;fontSize=12;align=center;" vertex="1" parent="1">
                    <mxGeometry x="440" y="280" width="120" height="80" as="geometry"/>
                </mxCell>
                <mxCell id="22" value="ログアウト" style="text;strokeColor=none;fillColor=none;html=1;fontSize=14;fontStyle=0;verticalAlign=middle;align=center;" vertex="1" parent="1">
                    <mxGeometry x="314" y="120" width="100" height="40" as="geometry"/>
                </mxCell>
                <mxCell id="25" value="ステージ選択" style="text;strokeColor=none;fillColor=none;html=1;fontSize=15;fontStyle=0;verticalAlign=middle;align=center;" vertex="1" parent="1">
                    <mxGeometry x="360" y="240" width="90" height="20" as="geometry"/>
                </mxCell>
                <mxCell id="26" value="&lt;ul&gt;&lt;li&gt;新規作成&lt;/li&gt;&lt;li&gt;冒険を続ける&lt;/li&gt;&lt;/ul&gt;" style="text;strokeColor=none;fillColor=none;html=1;whiteSpace=wrap;verticalAlign=middle;overflow=hidden;fontSize=15;align=left;" vertex="1" parent="1">
                    <mxGeometry x="100" width="140" height="90" as="geometry"/>
                </mxCell>
            </root>
        </mxGraphModel>
    </diagram>
</mxfile>